<?xml version="1.0" standalone="no"?>
<!DOCTYPE svg PUBLIC "-//W3C//DTD SVG 20010904//EN"
 "http://www.w3.org/TR/2001/REC-SVG-20010904/DTD/svg10.dtd">
<svg version="1.0" xmlns="http://www.w3.org/2000/svg"
 width="224.000000pt" height="224.000000pt" viewBox="0 0 224.000000 224.000000"
 preserveAspectRatio="xMidYMid meet">

<g transform="translate(0.000000,224.000000) scale(0.100000,-0.100000)"
fill="#000000" stroke="none">
<path d="M574 1756 l-34 -34 0 -281 0 -281 263 0 262 1 124 219 c123 219 123
220 157 220 19 0 34 -5 34 -11 0 -6 -31 -154 -70 -330 -38 -175 -70 -322 -70
-326 0 -5 34 43 75 105 l75 112 216 0 215 0 -3 223 c-3 242 -7 260 -64 286
-26 12 -1032 131 -1106 131 -32 0 -47 -7 -74 -34z"/>
<path d="M1162 1164 l-53 -94 -285 0 -284 0 0 -265 c0 -183 4 -272 12 -290 14
-31 56 -55 95 -55 16 0 164 27 328 60 164 33 301 60 303 60 3 0 -16 -16 -42
-35 -49 -38 -53 -44 -35 -62 8 -8 28 0 76 33 88 60 155 79 278 79 92 -1 103
-3 139 -28 21 -15 62 -34 89 -42 28 -8 62 -25 75 -38 l24 -22 21 26 c12 15 38
30 57 34 82 16 174 96 213 184 27 62 27 168 -1 232 -26 60 -74 114 -131 146
-25 15 -54 33 -63 41 -13 10 -38 13 -96 11 -66 -3 -90 -10 -154 -41 -73 -37
-79 -38 -182 -38 l-106 0 -121 -182 c-149 -225 -151 -228 -201 -228 -33 0 -38
3 -34 18 8 26 134 587 133 589 -1 0 -26 -41 -55 -93z m868 -249 c8 -10 9 -19
4 -25 -30 -28 -238 -190 -241 -187 -2 2 3 19 11 37 8 20 50 63 107 111 52 42
97 78 100 78 4 1 12 -6 19 -14z"/>
<path d="M130 1135 c-18 -22 -8 -50 21 -53 34 -4 54 20 39 47 -12 24 -42 27
-60 6z"/>
<path d="M250 1135 c-22 -26 -8 -50 30 -50 25 0 36 5 38 18 5 23 -15 47 -38
47 -10 0 -23 -7 -30 -15z"/>
<path d="M370 1129 c-20 -36 3 -49 86 -49 l74 0 0 35 0 35 -75 0 c-65 0 -76
-3 -85 -21z"/>
<path d="M1440 505 c-58 -17 -128 -54 -150 -79 -10 -13 -10 -19 0 -31 10 -13
18 -10 56 16 63 43 117 59 200 59 82 0 153 -22 209 -64 29 -22 35 -24 45 -11
18 22 -9 49 -88 86 -79 38 -187 47 -272 24z"/>
<path d="M1445 371 c-22 -10 -49 -26 -60 -34 -18 -15 -19 -17 -4 -32 15 -15
19 -14 53 8 67 46 144 46 222 1 38 -21 43 -22 55 -8 12 14 9 20 -15 39 -59 47
-179 60 -251 26z"/>
<path d="M1479 211 c-37 -37 -38 -79 -3 -120 22 -26 33 -31 70 -31 34 0 51 6
69 25 56 55 11 155 -70 155 -27 0 -44 -8 -66 -29z"/>
</g>
</svg>
